<svg id="圖層_1" data-name="圖層 1" xmlns="http://www.w3.org/2000/svg" viewBox="0 0 462.84 464.71"><defs><style>.cls-1{fill:#515151;}.cls-2{fill:#fff;}</style></defs><path class="cls-1" d="M370.9,247.83a139.45,139.45,0,0,1-278.83,4.58c0-1.52-.08-3-.08-4.58a139.46,139.46,0,0,1,278.91,0Z"/><path class="cls-2" d="M356.81,247.83A125.67,125.67,0,0,1,105.53,252c0-1.37-.07-2.74-.07-4.13a125.68,125.68,0,0,1,251.35,0Z"/><path class="cls-1" d="M231.15,122.17V252H105.53c0-1.37-.07-2.74-.07-4.13A125.68,125.68,0,0,1,231.15,122.17Z"/><polygon class="cls-2" points="170.91 175.6 179.59 175.6 175.25 160 170.91 175.6"/><polygon class="cls-2" points="181.47 175.9 189.02 180.2 192.98 164.5 181.47 175.9"/><polygon class="cls-2" points="190.5 181.39 194.92 188.87 206.14 177.19 190.5 181.39"/><polygon class="cls-2" points="195.77 191.26 195.63 199.95 211.3 195.85 195.77 191.26"/><polygon class="cls-2" points="195.23 202.08 190.71 209.49 206.29 213.9 195.23 202.08"/><polygon class="cls-2" points="189.42 210.99 181.81 215.17 193.12 226.76 189.42 210.99"/><polygon class="cls-2" points="179.54 215.91 170.86 215.56 174.57 231.32 179.54 215.91"/><polygon class="cls-2" points="169.01 215.19 161.64 210.59 157.06 226.12 169.01 215.19"/><polygon class="cls-2" points="160.42 209.58 156.18 202 144.68 213.4 160.42 209.58"/><polygon class="cls-2" points="155.48 200.01 155.64 191.33 139.96 195.38 155.48 200.01"/><polygon class="cls-2" points="155.92 189.62 160.3 182.12 144.64 178.01 155.92 189.62"/><polygon class="cls-2" points="161.44 180.72 168.94 176.34 157.32 165.05 161.44 180.72"/><circle class="cls-2" cx="175.46" cy="195.61" r="17.6"/></svg>